solid OpenSCAD_Model
  facet normal 1 -0 0
    outer loop
      vertex 190.6 0 20
      vertex 190.6 160.6 0
      vertex 190.6 160.6 20
    endloop
  endfacet
  facet normal 1 0 0
    outer loop
      vertex 190.6 160.6 0
      vertex 190.6 0 20
      vertex 190.6 0 0
    endloop
  endfacet
  facet normal -0 0 1
    outer loop
      vertex 0 160.6 20
      vertex 190.6 0 20
      vertex 190.6 160.6 20
    endloop
  endfacet
  facet normal 0 0 1
    outer loop
      vertex 190.6 0 20
      vertex 0 160.6 20
      vertex 0 0 20
    endloop
  endfacet
  facet normal 0 0 -1
    outer loop
      vertex 190.6 0 0
      vertex 185.6 5 0
      vertex 190.6 160.6 0
    endloop
  endfacet
  facet normal 0 0 -1
    outer loop
      vertex 190.6 0 0
      vertex 5 5 0
      vertex 185.6 5 0
    endloop
  endfacet
  facet normal -0 0 -1
    outer loop
      vertex 5 5 0
      vertex 0 0 0
      vertex 5 155.6 0
    endloop
  endfacet
  facet normal 0 0 -1
    outer loop
      vertex 0 0 0
      vertex 5 5 0
      vertex 190.6 0 0
    endloop
  endfacet
  facet normal 0 0 -1
    outer loop
      vertex 185.6 155.6 0
      vertex 190.6 160.6 0
      vertex 185.6 5 0
    endloop
  endfacet
  facet normal 0 0 -1
    outer loop
      vertex 5 155.6 0
      vertex 190.6 160.6 0
      vertex 185.6 155.6 0
    endloop
  endfacet
  facet normal 0 0 -1
    outer loop
      vertex 5 155.6 0
      vertex 0 160.6 0
      vertex 190.6 160.6 0
    endloop
  endfacet
  facet normal 0 0 -1
    outer loop
      vertex 0 160.6 0
      vertex 5 155.6 0
      vertex 0 0 0
    endloop
  endfacet
  facet normal -1 0 0
    outer loop
      vertex 0 0 0
      vertex 0 160.6 20
      vertex 0 160.6 0
    endloop
  endfacet
  facet normal -1 -0 0
    outer loop
      vertex 0 160.6 20
      vertex 0 0 0
      vertex 0 0 20
    endloop
  endfacet
  facet normal 0 1 -0
    outer loop
      vertex 190.6 160.6 0
      vertex 0 160.6 20
      vertex 190.6 160.6 20
    endloop
  endfacet
  facet normal 0 1 0
    outer loop
      vertex 0 160.6 20
      vertex 190.6 160.6 0
      vertex 0 160.6 0
    endloop
  endfacet
  facet normal 0 -1 0
    outer loop
      vertex 0 0 0
      vertex 190.6 0 20
      vertex 0 0 20
    endloop
  endfacet
  facet normal 0 -1 -0
    outer loop
      vertex 190.6 0 20
      vertex 0 0 0
      vertex 190.6 0 0
    endloop
  endfacet
  facet normal -1 0 0
    outer loop
      vertex 185.6 5 0
      vertex 185.6 155.6 12
      vertex 185.6 155.6 0
    endloop
  endfacet
  facet normal -1 -0 0
    outer loop
      vertex 185.6 155.6 12
      vertex 185.6 5 0
      vertex 185.6 5 12
    endloop
  endfacet
  facet normal 0 0 -1
    outer loop
      vertex 5 5 12
      vertex 185.6 155.6 12
      vertex 185.6 5 12
    endloop
  endfacet
  facet normal -0 0 -1
    outer loop
      vertex 185.6 155.6 12
      vertex 5 5 12
      vertex 5 155.6 12
    endloop
  endfacet
  facet normal 1 -0 0
    outer loop
      vertex 5 5 12
      vertex 5 155.6 0
      vertex 5 155.6 12
    endloop
  endfacet
  facet normal 1 0 0
    outer loop
      vertex 5 155.6 0
      vertex 5 5 12
      vertex 5 5 0
    endloop
  endfacet
  facet normal 0 -1 0
    outer loop
      vertex 5 155.6 0
      vertex 185.6 155.6 12
      vertex 5 155.6 12
    endloop
  endfacet
  facet normal 0 -1 -0
    outer loop
      vertex 185.6 155.6 12
      vertex 5 155.6 0
      vertex 185.6 155.6 0
    endloop
  endfacet
  facet normal 0 1 -0
    outer loop
      vertex 185.6 5 0
      vertex 5 5 12
      vertex 185.6 5 12
    endloop
  endfacet
  facet normal 0 1 0
    outer loop
      vertex 5 5 12
      vertex 185.6 5 0
      vertex 5 5 0
    endloop
  endfacet
endsolid OpenSCAD_Model
