solid OpenSCAD_Model
  facet normal 1 -0 0
    outer loop
      vertex 205 0 43
      vertex 205 150 0
      vertex 205 150 43
    endloop
  endfacet
  facet normal 1 0 0
    outer loop
      vertex 205 150 0
      vertex 205 0 43
      vertex 205 0 0
    endloop
  endfacet
  facet normal 0 0 1
    outer loop
      vertex 205 150 43
      vertex 200 145 43
      vertex 205 0 43
    endloop
  endfacet
  facet normal 0 0 1
    outer loop
      vertex 205 150 43
      vertex 5 145 43
      vertex 200 145 43
    endloop
  endfacet
  facet normal 0 0 1
    outer loop
      vertex 5 145 43
      vertex 0 150 43
      vertex 5 5 43
    endloop
  endfacet
  facet normal -0 0 1
    outer loop
      vertex 0 150 43
      vertex 5 145 43
      vertex 205 150 43
    endloop
  endfacet
  facet normal -0 0 1
    outer loop
      vertex 200 5 43
      vertex 205 0 43
      vertex 200 145 43
    endloop
  endfacet
  facet normal -0 0 1
    outer loop
      vertex 5 5 43
      vertex 205 0 43
      vertex 200 5 43
    endloop
  endfacet
  facet normal 0 0 1
    outer loop
      vertex 5 5 43
      vertex 0 0 43
      vertex 205 0 43
    endloop
  endfacet
  facet normal 0 0 1
    outer loop
      vertex 0 0 43
      vertex 5 5 43
      vertex 0 150 43
    endloop
  endfacet
  facet normal 0 0 -1
    outer loop
      vertex 0 0 0
      vertex 205 150 0
      vertex 205 0 0
    endloop
  endfacet
  facet normal -0 0 -1
    outer loop
      vertex 205 150 0
      vertex 0 0 0
      vertex 0 150 0
    endloop
  endfacet
  facet normal -1 0 0
    outer loop
      vertex 0 0 0
      vertex 0 150 43
      vertex 0 150 0
    endloop
  endfacet
  facet normal -1 -0 0
    outer loop
      vertex 0 150 43
      vertex 0 0 0
      vertex 0 0 43
    endloop
  endfacet
  facet normal 0 1 -0
    outer loop
      vertex 205 150 0
      vertex 0 150 43
      vertex 205 150 43
    endloop
  endfacet
  facet normal 0 1 0
    outer loop
      vertex 0 150 43
      vertex 205 150 0
      vertex 0 150 0
    endloop
  endfacet
  facet normal 0 -1 0
    outer loop
      vertex 0 0 0
      vertex 205 0 43
      vertex 0 0 43
    endloop
  endfacet
  facet normal 0 -1 -0
    outer loop
      vertex 205 0 43
      vertex 0 0 0
      vertex 205 0 0
    endloop
  endfacet
  facet normal -1 0 0
    outer loop
      vertex 200 5 8
      vertex 200 145 43
      vertex 200 145 8
    endloop
  endfacet
  facet normal -1 -0 0
    outer loop
      vertex 200 145 43
      vertex 200 5 8
      vertex 200 5 43
    endloop
  endfacet
  facet normal -0 0 1
    outer loop
      vertex 5 145 8
      vertex 200 5 8
      vertex 200 145 8
    endloop
  endfacet
  facet normal 0 0 1
    outer loop
      vertex 200 5 8
      vertex 5 145 8
      vertex 5 5 8
    endloop
  endfacet
  facet normal 1 -0 0
    outer loop
      vertex 5 5 43
      vertex 5 145 8
      vertex 5 145 43
    endloop
  endfacet
  facet normal 1 0 0
    outer loop
      vertex 5 145 8
      vertex 5 5 43
      vertex 5 5 8
    endloop
  endfacet
  facet normal 0 -1 0
    outer loop
      vertex 5 145 8
      vertex 200 145 43
      vertex 5 145 43
    endloop
  endfacet
  facet normal 0 -1 -0
    outer loop
      vertex 200 145 43
      vertex 5 145 8
      vertex 200 145 8
    endloop
  endfacet
  facet normal 0 1 -0
    outer loop
      vertex 200 5 8
      vertex 5 5 43
      vertex 200 5 43
    endloop
  endfacet
  facet normal 0 1 0
    outer loop
      vertex 5 5 43
      vertex 200 5 8
      vertex 5 5 8
    endloop
  endfacet
endsolid OpenSCAD_Model
