solid OpenSCAD_Model
  facet normal 1 -0 0
    outer loop
      vertex 215.6 -160.6 20
      vertex 215.6 0 0
      vertex 215.6 0 20
    endloop
  endfacet
  facet normal 1 0 0
    outer loop
      vertex 215.6 0 0
      vertex 215.6 -160.6 20
      vertex 215.6 -160.6 0
    endloop
  endfacet
  facet normal 0 0 -1
    outer loop
      vertex 0 -160.6 0
      vertex 215.6 0 0
      vertex 215.6 -160.6 0
    endloop
  endfacet
  facet normal -0 0 -1
    outer loop
      vertex 215.6 0 0
      vertex 0 -160.6 0
      vertex 0 0 0
    endloop
  endfacet
  facet normal 0 0 1
    outer loop
      vertex 215.6 0 20
      vertex 210.6 -5 20
      vertex 215.6 -160.6 20
    endloop
  endfacet
  facet normal 0 0 1
    outer loop
      vertex 215.6 0 20
      vertex 5 -5 20
      vertex 210.6 -5 20
    endloop
  endfacet
  facet normal 0 0 1
    outer loop
      vertex 5 -5 20
      vertex 0 0 20
      vertex 5 -155.6 20
    endloop
  endfacet
  facet normal -0 0 1
    outer loop
      vertex 0 0 20
      vertex 5 -5 20
      vertex 215.6 0 20
    endloop
  endfacet
  facet normal -0 0 1
    outer loop
      vertex 210.6 -155.6 20
      vertex 215.6 -160.6 20
      vertex 210.6 -5 20
    endloop
  endfacet
  facet normal -0 0 1
    outer loop
      vertex 5 -155.6 20
      vertex 215.6 -160.6 20
      vertex 210.6 -155.6 20
    endloop
  endfacet
  facet normal 0 0 1
    outer loop
      vertex 5 -155.6 20
      vertex 0 -160.6 20
      vertex 215.6 -160.6 20
    endloop
  endfacet
  facet normal 0 0 1
    outer loop
      vertex 0 -160.6 20
      vertex 5 -155.6 20
      vertex 0 0 20
    endloop
  endfacet
  facet normal -1 0 0
    outer loop
      vertex 0 -160.6 0
      vertex 0 0 20
      vertex 0 0 0
    endloop
  endfacet
  facet normal -1 -0 0
    outer loop
      vertex 0 0 20
      vertex 0 -160.6 0
      vertex 0 -160.6 20
    endloop
  endfacet
  facet normal 0 -1 0
    outer loop
      vertex 0 -160.6 0
      vertex 215.6 -160.6 20
      vertex 0 -160.6 20
    endloop
  endfacet
  facet normal 0 -1 -0
    outer loop
      vertex 215.6 -160.6 20
      vertex 0 -160.6 0
      vertex 215.6 -160.6 0
    endloop
  endfacet
  facet normal 0 1 -0
    outer loop
      vertex 215.6 0 0
      vertex 0 0 20
      vertex 215.6 0 20
    endloop
  endfacet
  facet normal 0 1 0
    outer loop
      vertex 0 0 20
      vertex 215.6 0 0
      vertex 0 0 0
    endloop
  endfacet
  facet normal -1 0 0
    outer loop
      vertex 210.6 -155.6 8
      vertex 210.6 -5 20
      vertex 210.6 -5 8
    endloop
  endfacet
  facet normal -1 -0 0
    outer loop
      vertex 210.6 -5 20
      vertex 210.6 -155.6 8
      vertex 210.6 -155.6 20
    endloop
  endfacet
  facet normal -0 0 1
    outer loop
      vertex 5 -5 8
      vertex 210.6 -155.6 8
      vertex 210.6 -5 8
    endloop
  endfacet
  facet normal 0 0 1
    outer loop
      vertex 210.6 -155.6 8
      vertex 5 -5 8
      vertex 5 -155.6 8
    endloop
  endfacet
  facet normal 1 -0 0
    outer loop
      vertex 5 -155.6 20
      vertex 5 -5 8
      vertex 5 -5 20
    endloop
  endfacet
  facet normal 1 0 0
    outer loop
      vertex 5 -5 8
      vertex 5 -155.6 20
      vertex 5 -155.6 8
    endloop
  endfacet
  facet normal 0 1 -0
    outer loop
      vertex 210.6 -155.6 8
      vertex 5 -155.6 20
      vertex 210.6 -155.6 20
    endloop
  endfacet
  facet normal 0 1 0
    outer loop
      vertex 5 -155.6 20
      vertex 210.6 -155.6 8
      vertex 5 -155.6 8
    endloop
  endfacet
  facet normal 0 -1 0
    outer loop
      vertex 5 -5 8
      vertex 210.6 -5 20
      vertex 5 -5 20
    endloop
  endfacet
  facet normal 0 -1 -0
    outer loop
      vertex 210.6 -5 20
      vertex 5 -5 8
      vertex 210.6 -5 8
    endloop
  endfacet
endsolid OpenSCAD_Model
